<?xml version="1.0" encoding="UTF-8"?><svg id="uuid-930f776b-58c9-473e-b75a-43c5e28441db" xmlns="http://www.w3.org/2000/svg" xmlns:xlink="http://www.w3.org/1999/xlink" viewBox="0 0 1270 675.33333"><defs><clipPath id="uuid-8b068aec-aa6f-4d66-84aa-4787db7f459c"><rect x="108" y="108" width="216" height="324" style="fill:none;"/></clipPath><clipPath id="uuid-4f59b148-91be-43a4-b273-31f61080ec31"><rect x="108" y="108" width="216" height="324" style="fill:none;"/></clipPath></defs><path d="M417.87365,170h29.57956l53.57902,147.36842h-27.26323l-9.47351-26.10506h-63.15789l-9.47437,26.10506h-27.26323l53.47365-147.36842ZM410.50574,265.57891h44.31538l-22.20994-60.73705-22.10543,60.73705Z" style="fill:#130d15;"/><path d="M517.24145,317.36842v-105.26316h25.68359v9.36815c3.57902-3.78889,7.85876-6.78882,12.84265-8.99979,4.98133-2.21012,10.34985-3.31603,16.10386-3.31603,7.29852,0,14.01796,1.72098,20.15831,5.15779,6.14035,3.43938,11.03687,8.03694,14.68613,13.79009,3.71779-5.75315,8.63144-10.35071,14.7341-13.79009,6.10609-3.43681,12.80839-5.15779,20.10691-5.15779,7.71998,0,14.71697,1.8786,21.00123,5.63151,6.27741,3.75548,11.29729,8.77364,15.05277,15.05277,3.75206,6.2817,5.6298,13.28125,5.6298,21.00038v66.52618h-25.68531v-59.68424c0-4.06901-.99712-7.80565-2.99822-11.21077-2.0011-3.40255-4.66694-6.13949-8.00096-8.20998-3.33402-2.06963-7.06894-3.1053-11.21162-3.1053-4.13925,0-7.8776.99969-11.2082,2.99993-3.33402,2.00024-6.02042,4.68407-8.05236,8.05236-2.03879,3.36828-3.05304,7.19401-3.05304,11.47375v59.68424h-25.68531v-59.68424c0-4.27974-.98342-8.10547-2.94682-11.47375-1.96683-3.36828-4.63268-6.05212-8.00096-8.05236-3.36828-2.00024-7.12377-2.99993-11.26216-2.99993-4.07072,0-7.78937,1.03567-11.15765,3.1053-3.36828,2.07048-6.05297,4.80743-8.05321,8.20998-1.99938,3.40512-2.99993,7.14176-2.99993,11.21077v59.68424h-25.68359Z" style="fill:#130d15;"/><path d="M717.34339,198.5259c-3.78803,0-6.98328-1.24469-9.57888-3.73664-2.59731-2.49023-3.89426-5.63151-3.89426-9.42126,0-3.71865,1.29694-6.84193,3.89426-9.36815,2.5956-2.52621,5.75315-3.78975,9.47437-3.78975,3.71779,0,6.85821,1.26353,9.42126,3.78975,2.56133,2.52621,3.84115,5.6495,3.84115,9.36815,0,3.78975-1.26268,6.93102-3.78803,9.42126-2.52707,2.49195-5.65036,3.73664-9.36986,3.73664ZM704.29172,212.10526h25.68359v105.26316h-25.68359v-105.26316Z" style="fill:#130d15;"/><path d="M830.92275,212.10526h25.68531v107.2634c0,7.57864-1.54537,14.47368-4.63268,20.68428-3.08902,6.21059-7.29852,11.54228-12.63192,15.99935-5.3334,4.45621-11.43777,7.89474-18.31483,10.31558-6.87877,2.42085-14.10533,3.63213-21.68483,3.63213-7.36876,0-14.45655-1.50939-21.26336-4.52645-6.80681-3.01878-12.82552-7.1409-18.0527-12.36808-5.22718-5.22889-9.21053-11.1765-11.94661-17.84197l23.47348-10.63168c1.40317,3.85828,3.5259,7.24455,6.36822,10.15796,2.84231,2.91084,6.1215,5.19206,9.84272,6.84193,3.71779,1.64816,7.5795,2.47396,11.57826,2.47396,4.06901,0,7.98211-.56281,11.7376-1.685,3.75377-1.12305,7.13919-2.75493,10.15796-4.89395,3.01535-2.14158,5.3848-4.73718,7.10492-7.79023,1.71841-3.05219,2.57847-6.50956,2.57847-10.36784v-14.84204c-3.29804,4.63096-7.43901,8.38644-12.42119,11.26302s-10.73705,4.31572-17.26288,4.31572c-7.57778,0-14.66728-1.43914-21.26336-4.31572s-12.40406-6.85907-17.4205-11.94747c-5.01816-5.08755-8.94668-10.96406-11.78899-17.63124-2.84231-6.66632-4.26432-13.82436-4.26432-21.4741,0-7.64803,1.42201-14.80606,4.26432-21.4741,2.84231-6.66547,6.77083-12.54198,11.78899-17.63124,5.01645-5.08669,10.82442-9.06918,17.4205-11.94747,6.59608-2.87658,13.68558-4.31572,21.26336-4.31572,6.52584,0,12.2807,1.42116,17.26288,4.26347s9.12315,6.57895,12.42119,11.20991v-12.73643ZM801.55563,295.36835c5.40193,0,10.19223-1.38518,14.36746-4.1581,4.17523-2.77121,7.45614-6.48986,9.84272-11.15765,2.38487-4.66608,3.57902-9.77162,3.57902-15.31576,0-5.61352-1.21128-10.73705-3.63213-15.36801-2.42085-4.63182-5.7206-8.35047-9.89412-11.15851-4.17695-2.80548-8.93126-4.21035-14.26295-4.21035-5.26316,0-10.0723,1.38689-14.42229,4.1581-4.3517,2.77292-7.82449,6.47358-10.42009,11.1054-2.59731,4.63096-3.89597,9.78875-3.89597,15.47338s1.29866,10.84241,3.89597,15.47338c2.5956,4.63182,6.06839,8.3162,10.42009,11.05315,4.34999,2.73694,9.15913,4.10499,14.42229,4.10499Z" style="fill:#130d15;"/><path d="M874.39692,278.4207v-66.31538h25.68528v59.57882c0,4.14182,1.01597,7.91272,3.05133,11.31612,2.03536,3.40426,4.75431,6.10522,8.15857,8.1046,3.40255,2.00024,7.13918,3.00079,11.2099,3.00079,4.21121,0,8.00095-1.00055,11.36923-3.00079,3.36828-1.99938,6.06839-4.70035,8.10546-8.1046,2.03365-3.4034,3.05133-7.1743,3.05133-11.31612v-59.57882h25.68528l.10451,105.26306h-25.68357l-.10622-9.57887c-3.64926,3.78974-7.96497,6.78967-12.94715,8.99979-4.98218,2.21097-10.31557,3.31603-16.00019,3.31603-7.64973,0-14.63129-1.8786-20.94639-5.63151-6.31681-3.75377-11.3521-8.77192-15.10587-15.05275-3.75377-6.27998-5.63151-13.27952-5.63151-21.00036Z" style="fill:#130d15;"/><path d="M1036.60909,320.10537c-9.68339,0-18.50843-2.49195-26.47341-7.47413-7.96498-4.98133-14.31606-11.68363-19.05154-20.10519-4.73718-8.42071-7.10663-17.71861-7.10663-27.89457,0-7.64803,1.3689-14.82405,4.1067-21.52635,2.73609-6.70059,6.50699-12.59509,11.31442-17.68435,4.80572-5.08669,10.40296-9.06918,16.79002-11.94747,6.38535-2.87658,13.19216-4.31572,20.42044-4.31572,8.21169,0,15.73808,1.73725,22.57915,5.2109,6.84279,3.47365,12.64905,8.22882,17.42222,14.26295,4.77145,6.0367,8.24424,12.9129,10.42009,20.63202,2.17414,7.71998,2.66584,15.78947,1.47341,24.21018h-76.94627c.9817,3.93109,2.5956,7.457,4.84169,10.57857,2.24438,3.12414,5.08669,5.61523,8.52693,7.47413,3.43681,1.85975,7.33107,2.82603,11.68277,2.89457,4.49047.0711,8.58004-.99969,12.26357-3.21066,3.68524-2.21012,6.7537-5.21005,9.21053-8.99979l26.21128,6.10523c-4.28146,9.33388-10.66852,16.96563-19.15776,22.89525-8.49267,5.93048-18.0013,8.89443-28.52762,8.89443ZM1010.71476,254.21053h51.79036c-.7744-4.21035-2.40543-8.01638-4.89481-11.42064-2.4928-3.40341-5.56298-6.12236-9.21053-8.15858-3.65097-2.03451-7.5795-3.05219-11.79071-3.05219-4.2095,0-8.10376.99969-11.68277,2.99993-3.57902,2.00024-6.61664,4.70206-9.10602,8.10547-2.49109,3.40426-4.19408,7.24627-5.10554,11.52601Z" style="fill:#130d15;"/><path d="M1162,237.78971h-20.42215v79.57871h-25.68359v-79.57871h-15.57874v-25.68445h15.57874v-33.05236h25.68359v33.05236h20.42215v25.68445Z" style="fill:#130d15;"/><path d="M377.46143,361.00068c-1.79699,0-3.48691-.3569-5.06884-1.07254-1.58239-.71472-2.97104-1.70197-4.16733-2.96177-1.19583-1.25887-2.13256-2.72353-2.80974-4.39491-.67717-1.67045-1.01553-3.45493-1.01553-5.35343s.33836-3.68297,1.01553-5.35343c.67717-1.67138,1.61391-3.13604,2.80974-4.39491,1.19629-1.25979,2.58494-2.24705,4.16733-2.96177,1.58193-.71564,3.27185-1.07254,5.06884-1.07254,2.15157,0,4.1321.49965,5.94254,1.49896,1.8095,1.00023,3.30939,2.32955,4.4992,3.98703l-3.51194,1.87996c-.82318-1.03824-1.84149-1.86698-3.05678-2.48714-1.21483-.62016-2.50615-.93071-3.87301-.93071-1.26582,0-2.44913.25956-3.54995.77868-1.10128.51912-2.06953,1.22828-2.90476,2.12654s-1.48737,1.94299-1.95551,3.13233c-.4686,1.19027-.70267,2.45562-.70267,3.79699,0,1.35435.23407,2.62341.70267,3.80626.46814,1.18378,1.12306,2.22758,1.96478,3.13233.84172.90568,1.81321,1.61391,2.91449,2.12654,1.10081.51263,2.2781.76941,3.53094.76941,1.39235,0,2.69294-.31333,3.90174-.93998,1.20834-.62665,2.21785-1.4591,3.02805-2.49641l3.51194,1.91704c-1.1898,1.6584-2.68969,2.98401-4.4992,3.97776-1.81043.99374-3.79097,1.48969-5.94254,1.48969Z" style="fill:#534d54;"/><path d="M391.49158,360.50752v-18.98497h3.94902v2.01252c.65771-.78517,1.4679-1.40533,2.43013-1.86049.96176-.45608,1.99954-.6832,3.11333-.6832.70869,0,1.41136.09455,2.10754.28459l-1.5759,3.98703c-.49363-.19004-.98726-.28552-1.48088-.28552-.83523,0-1.60139.20579-2.29711.61738-.69618.41159-1.25284.96501-1.67045,1.66118-.41808.69618-.62665,1.46837-.62665,2.31657v10.9349h-3.94902Z" style="fill:#534d54;"/><path d="M412.71665,361.00068c-1.74693,0-3.33859-.44867-4.77498-1.34786-1.43639-.89826-2.5817-2.10336-3.43639-3.61623-.85423-1.51194-1.28111-3.1861-1.28111-5.02156,0-1.39235.24658-2.69294.74021-3.90174.49363-1.20788,1.17405-2.27115,2.04079-3.18888s1.87625-1.63616,3.02805-2.15528c1.1518-.51819,2.37961-.77775,3.68344-.77775,1.45493,0,2.79073.30035,4.00557.90104,1.2153.60162,2.25261,1.43036,3.11379,2.48714.86026,1.05678,1.49293,2.27208,1.8985,3.64497.40464,1.37381.52468,2.83199.3606,4.37637h-14.63733c.16408.87323.48389,1.66118.95852,2.36385s1.08227,1.25609,1.82248,1.66118c.74067.4051,1.56663.61367,2.47787.62665.9613,0,1.83824-.24102,2.62944-.72213.79073-.48019,1.43917-1.14485,1.94577-1.99305l4.00603.93071c-.75968,1.68343-1.90545,3.0591-3.43639,4.12886-1.53187,1.06976-3.24636,1.60371-5.14485,1.60371ZM407.32475,349.38259h10.78333c-.12654-.91124-.44589-1.7372-.95852-2.47787s-1.1518-1.32932-1.9175-1.76594c-.76617-.43662-1.60417-.65446-2.51542-.65446-.89919,0-1.73117.21506-2.49688.64519-.7657.43106-1.39838,1.01599-1.8985,1.75667-.50012.73975-.83198,1.57219-.99653,2.49641ZM411.67238,339.43402l1.51889-5.46745h3.94856l-2.80974,5.46745h-2.65771Z" style="fill:#534d54;"/><path d="M439.9788,341.52255h3.94902v18.98497h-3.96802l-.15203-2.75319c-.55666.9752-1.30985,1.75945-2.2591,2.35458s-2.06906.89177-3.36038.89177c-1.39235,0-2.70221-.26234-3.92955-.78702-1.22781-.52561-2.30684-1.25609-3.23709-2.19328-.93024-.93627-1.65516-2.0153-2.17382-3.23709-.51912-1.22086-.77822-2.53442-.77822-3.93882,0-1.35435.25307-2.6299.75921-3.82573s1.20834-2.24334,2.10754-3.1416c.89826-.89919,1.93928-1.60464,3.1226-2.11727s2.45238-.76848,3.80673-.76848c1.37938,0,2.59745.3124,3.6547.93905,1.05632.62665,1.93326,1.42758,2.62944,2.40186l-.17103-2.80974ZM434.09327,357.18515c1.11379,0,2.08853-.27532,2.92376-.82596.83569-.55064,1.48413-1.29409,1.94624-2.23036.46165-.9372.69293-1.97451.69293-3.11379,0-1.15133-.23453-2.19606-.70267-3.13233s-1.11704-1.68065-1.94577-2.23129c-.8292-.55064-1.8007-.82503-2.91449-.82503-1.10081,0-2.10707.2781-3.01831.83523s-1.63291,1.30336-2.16455,2.23963c-.53117.9372-.79722,1.97451-.79722,3.11379,0,1.15226.27532,2.19236.82596,3.12306.55064.92978,1.27833,1.67045,2.18309,2.22109s1.89525.82596,2.97104.82596Z" style="fill:#534d54;"/><path d="M457.74847,345.47157h-3.98703l-.01854,15.03595h-3.94902l.019-15.03595h-3.01878v-3.94902h3.01878l-.019-5.96154h3.94902l.01854,5.96154h3.98703v3.94902Z" style="fill:#534d54;"/><path d="M462.91279,338.76936c-.60765,0-1.11379-.1956-1.51889-.58772-.4051-.39305-.60765-.88621-.60765-1.48135,0-.58216.20255-1.07254.60765-1.47115s.90475-.59792,1.49989-.59792c.58216,0,1.07578.19931,1.48088.59792.40464.39861.60765.88899.60765,1.47115,0,.59513-.19931,1.0883-.59838,1.48135-.39861.39212-.88899.58772-1.47115.58772ZM460.90027,341.52255h3.94902v18.98497h-3.94902v-18.98497Z" style="fill:#534d54;"/><path d="M477.41802,361.00068c-1.74693,0-3.33859-.44867-4.77498-1.34786-1.43639-.89826-2.5817-2.10336-3.43639-3.61623-.85423-1.51194-1.28111-3.1861-1.28111-5.02156,0-1.39235.24658-2.69294.74021-3.90174.49363-1.20788,1.17405-2.27115,2.04079-3.18888s1.87625-1.63616,3.02805-2.15528c1.1518-.51819,2.37961-.77775,3.68344-.77775,1.74647,0,3.33813.44867,4.77452,1.34786,1.43639.89826,2.58216,2.10707,3.43639,3.6255.85423,1.51935,1.28158,3.20279,1.28158,5.0503,0,1.37938-.24705,2.67069-.74067,3.87301s-1.17405,2.26281-2.04079,3.17961c-.86721.91773-1.87347,1.63616-3.01878,2.15528-1.14531.51819-2.37637.77775-3.69224.77775ZM477.41802,357.05259c1.05029,0,1.99305-.27903,2.82874-.83523.83523-.55713,1.49618-1.29409,1.98378-2.21182.48714-.91773.73094-1.91426.73094-2.9905,0-1.10128-.25029-2.11356-.74994-3.03778-.50012-.92329-1.16756-1.66118-2.00278-2.21182-.83569-.55064-1.76594-.82596-2.79073-.82596-1.03824,0-1.97776.27903-2.81947.83615-.84172.5562-1.50638,1.29687-1.99351,2.22109-.48714.92329-.73094,1.93001-.73094,3.01831,0,1.12631.25307,2.14508.75968,3.05632.50614.91124,1.18007,1.63616,2.02179,2.17382.84172.53859,1.76223.80742,2.76246.80742Z" style="fill:#534d54;"/><path d="M507.07415,348.60391v11.90361h-3.94902v-10.9349c0-.84821-.20579-1.6204-.61738-2.31657s-.96223-1.2496-1.65191-1.66118-1.46466-.61738-2.32492-.61738c-.83615,0-1.60186.20579-2.29711.61738-.6971.41159-1.2533.96501-1.67231,1.66118-.41715.69618-.62665,1.46837-.62665,2.31657v10.9349h-3.94717v-18.98497h3.94717v2.01252c.65817-.78517,1.46837-1.40533,2.43059-1.86049.96223-.45608,2.00047-.6832,3.11472-.6832,1.40348,0,2.68274.34114,3.83407,1.02434,1.15133.68413,2.06536,1.60186,2.74392,2.75319.67671,1.15226,1.01599,2.43059,1.01599,3.835Z" style="fill:#534d54;"/><path d="M516.56571,360.86812c-1.00023-.06304-1.97451-.26605-2.92376-.60719-.94925-.34206-1.78169-.80742-2.49641-1.39606-.71564-.58772-1.25052-1.28111-1.60464-2.07833l3.36038-1.44334c.16408.34206.45238.67764.86396,1.00672.41066.32909.89548.59792,1.45261.80649.5562.2095,1.13836.31333,1.74647.31333.59421,0,1.14855-.08528,1.66118-.25585.51263-.1715.93256-.43384,1.26257-.78795.32816-.35411.49316-.77868.49316-1.27184,0-.55713-.18725-.99096-.55991-1.30058-.37358-.31055-.83894-.54786-1.39514-.71194-.55713-.16501-1.11425-.3226-1.67138-.47462-1.24033-.2781-2.3759-.66188-3.40765-1.14855-1.03175-.4876-1.85122-1.11425-2.4584-1.87996s-.91124-1.70475-.91124-2.81901c0-1.2153.32909-2.26837.98726-3.16107s1.52213-1.57868,2.59189-2.05979c1.06883-.48111,2.2109-.72121,3.42619-.72121,1.51935,0,2.91078.3226,4.17706.96779,1.26536.64519,2.23314,1.5314,2.90429,2.65771l-3.13233,1.86049c-.19004-.37914-.47462-.72121-.85469-1.02526-.37914-.30313-.8102-.54693-1.29038-.73048-.48111-.18355-.98077-.28737-1.49989-.31333-.64519-.02503-1.24403.04728-1.79467.21877-.54971.17057-.99004.4394-1.31912.80649s-.49316.83523-.49316,1.40533c0,.5562.1956.9715.58865,1.24311.39212.27254.88899.49038,1.48969.65539.60162.16408,1.21808.34763,1.85122.54971,1.12631.35504,2.18309.78795,3.17034,1.30058s1.78448,1.14299,2.39259,1.88923c.60719.74716.89826,1.6584.87323,2.73372,0,1.19027-.35782,2.23407-1.07254,3.13233-.71564.89919-1.64264,1.58239-2.78193,2.05052s-2.34809.66466-3.6255.58865Z" style="fill:#534d54;"/><path d="M553.49091,348.60391v11.90361h-3.94902v-10.9349c0-.84821-.20579-1.6204-.61738-2.31657s-.96223-1.2496-1.65191-1.66118-1.46466-.61738-2.32492-.61738c-.83615,0-1.60186.20579-2.29711.61738-.6971.41159-1.2533.96501-1.67138,1.66118-.41715.69618-.62665,1.46837-.62665,2.31657v10.9349h-3.94809v-18.98497h3.94809v2.01252c.65817-.78517,1.46837-1.40533,2.43059-1.86049.9613-.45608,1.99954-.6832,3.11379-.6832,1.40441,0,2.68274.34114,3.835,1.02434,1.15133.68413,2.06536,1.60186,2.74299,2.75319.67671,1.15226,1.01599,2.43059,1.01599,3.835Z" style="fill:#534d54;"/><path d="M556.52684,353.38815v-11.8656h3.94902v10.89782c0,.84728.2095,1.61947.62665,2.31565.41808.69618.97428,1.25052,1.67045,1.66118.69618.41159,1.46188.61738,2.29711.61738.84821,0,1.61669-.20579,2.3073-.61738.68969-.41066,1.24033-.96501,1.65099-1.66118.41159-.69618.61738-1.46837.61738-2.31565v-10.89782h3.94902l.01854,18.98497h-3.94809l-.01947-2.05052c-.64519.78517-1.4489,1.40533-2.41113,1.86049-.96223.45608-1.99305.6832-3.09433.6832-1.40533,0-2.68367-.34114-3.835-1.02434-1.15226-.68413-2.06906-1.60093-2.75319-2.75319-.6832-1.15133-1.02526-2.42967-1.02526-3.835Z" style="fill:#534d54;"/><path d="M577.41123,360.50752v-18.98497h3.94809v2.01252c.65817-.78517,1.46559-1.40533,2.42132-1.86049.95481-.45608,1.99027-.6832,3.1036-.6832,1.35435,0,2.60116.32538,3.74045.97706,1.13836.65261,2.04311,1.51565,2.71426,2.59189.67115-1.07625,1.56663-1.93928,2.68645-2.59189,1.12074-.65168,2.35736-.97706,3.71171-.97706,1.40533,0,2.68274.34114,3.835,1.02434,1.15133.68413,2.06906,1.60186,2.75319,2.75319.6832,1.15226,1.02526,2.43059,1.02526,3.835v11.90361h-3.94902v-10.89782c0-.83523-.20301-1.60093-.60811-2.29711-.4051-.69525-.94925-1.25887-1.63245-1.68899s-1.44241-.64612-2.27857-.64612c-.83523,0-1.59444.20301-2.27764.60811s-1.22828.95574-1.63245,1.65099c-.40603.6971-.60811,1.48784-.60811,2.37312v10.89782h-3.94902v-10.89782c0-.88529-.20209-1.67602-.60719-2.37312-.4051-.69525-.95203-1.24589-1.64172-1.65099-.69062-.4051-1.45261-.60811-2.28784-.60811-.82318,0-1.57961.21599-2.2693.64612s-1.23662.99374-1.64172,1.68899c-.4051.69618-.60811,1.46188-.60811,2.29711v10.89782h-3.94809Z" style="fill:#534d54;"/><path d="M619.12161,361.00068c-1.74647,0-3.33813-.44867-4.77498-1.34786-1.43685-.89826-2.5817-2.10336-3.43639-3.61623-.85377-1.51194-1.28111-3.1861-1.28111-5.02156,0-1.39235.24658-2.69294.74067-3.90174.49316-1.20788,1.17358-2.27115,2.04033-3.18888s1.87625-1.63616,3.02851-2.15528c1.15133-.51819,2.37868-.77775,3.68297-.77775,1.45539,0,2.79027.30035,4.00557.90104,1.2153.60162,2.25261,1.43036,3.11379,2.48714.86026,1.05678,1.4934,2.27208,1.8985,3.64497.4051,1.37381.52468,2.83199.3606,4.37637h-14.63733c.16408.87323.48389,1.66118.95852,2.36385s1.08181,1.25609,1.82248,1.66118,1.56663.61367,2.47787.62665c.9613,0,1.83824-.24102,2.62897-.72213.79073-.48019,1.43963-1.14485,1.94577-1.99305l4.0065.93071c-.75921,1.68343-1.90499,3.0591-3.43639,4.12886s-3.24636,1.60371-5.14485,1.60371ZM613.72925,349.38259h10.78379c-.127-.91124-.44589-1.7372-.95852-2.47787s-1.15226-1.32932-1.91796-1.76594-1.60371-.65446-2.51495-.65446c-.89919,0-1.73071.21506-2.49641.64519-.76663.43106-1.39884,1.01599-1.8985,1.75667-.50058.73975-.83245,1.57219-.99745,2.49641ZM618.07688,339.43402l1.51935-5.46745h3.94902l-2.80974,5.46745h-2.65864Z" style="fill:#534d54;"/><path d="M631.65187,360.50752v-18.98497h3.94809v2.01252c.65817-.78517,1.46837-1.40533,2.43059-1.86049.9613-.45608,1.99954-.6832,3.11379-.6832.70823,0,1.41089.09455,2.10707.28459l-1.5759,3.98703c-.49316-.19004-.98726-.28552-1.48042-.28552-.83615,0-1.60186.20579-2.29711.61738-.6971.41159-1.2533.96501-1.67138,1.66118-.41715.69618-.62665,1.46837-.62665,2.31657v10.9349h-3.94809Z" style="fill:#534d54;"/><path d="M647.46557,338.76936c-.60719,0-1.11333-.1956-1.51843-.58772-.4051-.39305-.60719-.88621-.60719-1.48135,0-.58216.20209-1.07254.60719-1.47115s.90475-.59792,1.49989-.59792c.58216,0,1.07532.19931,1.48042.59792s.60811.88899.60811,1.47115c0,.59513-.19931,1.0883-.59792,1.48135-.39861.39212-.88992.58772-1.47208.58772ZM645.45398,341.52255h3.94809v18.98497h-3.94809v-18.98497Z" style="fill:#534d54;"/><path d="M662.46444,361.03869c-1.83546,0-3.5087-.44867-5.02156-1.34786-1.51194-.89826-2.71796-2.10707-3.61623-3.6255-.89919-1.51935-1.34786-3.20186-1.34786-5.0503,0-1.37938.25863-2.67069.77775-3.87301s1.23755-2.26188,2.15528-3.17961,1.97729-1.63616,3.17961-2.15528c1.20232-.51819,2.49363-.77775,3.87301-.77775,1.34137,0,2.50661.30313,3.49386.91124.98726.60719,1.79653,1.39792,2.42967,2.37312v-2.7912h3.94902v28.47745h-3.94902v-12.24567c-.63314.96223-1.44241,1.75018-2.42967,2.36385s-2.15249.92051-3.49386.92051ZM662.50244,344.84492c-1.10128,0-2.10707.2781-3.01831.83523s-1.63245,1.30429-2.16455,2.24056c-.53117.93627-.79722,1.96802-.79722,3.09433,0,1.15226.27161,2.19606.81669,3.13233.54415.9372,1.26814,1.68065,2.17382,2.23129.90475.55064,1.90128.82503,2.98958.82503,1.11425,0,2.08853-.2781,2.92376-.83523.83523-.5562,1.48135-1.30336,1.9365-2.23963.45608-.9372.6832-1.97451.6832-3.11379s-.23082-2.17382-.69247-3.1036c-.46257-.93071-1.10777-1.67416-1.9365-2.23129s-1.80023-.83523-2.91449-.83523Z" style="fill:#534d54;"/><path d="M675.67697,353.38815v-11.8656h3.94902v10.89782c0,.84728.2095,1.61947.62665,2.31565.41808.69618.97428,1.25052,1.67045,1.66118.69618.41159,1.46188.61738,2.29711.61738.84821,0,1.61669-.20579,2.3073-.61738.68969-.41066,1.24033-.96501,1.65099-1.66118.41159-.69618.61738-1.46837.61738-2.31565v-10.89782h3.94902l.01854,18.98497h-3.94809l-.01947-2.05052c-.64519.78517-1.4489,1.40533-2.41113,1.86049-.96223.45608-1.99305.6832-3.09433.6832-1.40533,0-2.68367-.34114-3.835-1.02434-1.15226-.68413-2.06906-1.60093-2.75319-2.75319-.6832-1.15133-1.02526-2.42967-1.02526-3.835Z" style="fill:#534d54;"/><path d="M704.66891,361.00068c-1.74647,0-3.33813-.44867-4.77498-1.34786-1.43685-.89826-2.5817-2.10336-3.43639-3.61623-.85377-1.51194-1.28111-3.1861-1.28111-5.02156,0-1.39235.24658-2.69294.74067-3.90174.49316-1.20788,1.17358-2.27115,2.04033-3.18888s1.87625-1.63616,3.02851-2.15528c1.15133-.51819,2.37868-.77775,3.68297-.77775,1.45539,0,2.79027.30035,4.00557.90104,1.2153.60162,2.25261,1.43036,3.11379,2.48714.86026,1.05678,1.4934,2.27208,1.8985,3.64497.4051,1.37381.52468,2.83199.3606,4.37637h-14.63733c.16408.87323.48389,1.66118.95852,2.36385s1.08181,1.25609,1.82248,1.66118,1.56663.61367,2.47787.62665c.9613,0,1.83824-.24102,2.62897-.72213.79073-.48019,1.43963-1.14485,1.94577-1.99305l4.0065.93071c-.75921,1.68343-1.90499,3.0591-3.43639,4.12886s-3.24636,1.60371-5.14485,1.60371ZM699.27655,349.38259h10.78379c-.127-.91124-.44589-1.7372-.95852-2.47787s-1.15226-1.32932-1.91796-1.76594-1.60371-.65446-2.51495-.65446c-.89919,0-1.73071.21506-2.49641.64519-.76663.43106-1.39884,1.01599-1.8985,1.75667-.50058.73975-.83245,1.57219-.99745,2.49641Z" style="fill:#534d54;"/><path d="M722.98921,360.86812c-1.00023-.06304-1.97451-.26605-2.92376-.60719-.94925-.34206-1.78169-.80742-2.49641-1.39606-.71564-.58772-1.25052-1.28111-1.60464-2.07833l3.36038-1.44334c.16408.34206.45238.67764.86396,1.00672.41066.32909.89548.59792,1.45261.80649.5562.2095,1.13836.31333,1.74647.31333.59421,0,1.14855-.08528,1.66118-.25585.51263-.1715.93256-.43384,1.26257-.78795.32816-.35411.49316-.77868.49316-1.27184,0-.55713-.18725-.99096-.55991-1.30058-.37358-.31055-.83894-.54786-1.39514-.71194-.55713-.16501-1.11425-.3226-1.67138-.47462-1.24033-.2781-2.3759-.66188-3.40765-1.14855-1.03175-.4876-1.85122-1.11425-2.4584-1.87996s-.91124-1.70475-.91124-2.81901c0-1.2153.32909-2.26837.98726-3.16107s1.52213-1.57868,2.59189-2.05979c1.06883-.48111,2.2109-.72121,3.42619-.72121,1.51935,0,2.91078.3226,4.17706.96779,1.26536.64519,2.23314,1.5314,2.90429,2.65771l-3.13233,1.86049c-.19004-.37914-.47462-.72121-.85469-1.02526-.37914-.30313-.8102-.54693-1.29038-.73048-.48111-.18355-.98077-.28737-1.49989-.31333-.64519-.02503-1.24403.04728-1.79467.21877-.54971.17057-.99004.4394-1.31912.80649s-.49316.83523-.49316,1.40533c0,.5562.1956.9715.58865,1.24311.39212.27254.88899.49038,1.48969.65539.60162.16408,1.21808.34763,1.85122.54971,1.12631.35504,2.18309.78795,3.17034,1.30058s1.78448,1.14299,2.39259,1.88923c.60719.74716.89826,1.6584.87323,2.73372,0,1.19027-.35782,2.23407-1.07254,3.13233-.71564.89919-1.64264,1.58239-2.78193,2.05052s-2.34809.66466-3.6255.58865Z" style="fill:#534d54;"/><g style="clip-path:url(#uuid-8b068aec-aa6f-4d66-84aa-4787db7f459c);"><polyline points="143.1 143.1 288.9 143.1 143.1 288.9" style="fill:none; stroke:#7a3292; stroke-linecap:round; stroke-linejoin:round; stroke-width:15px;"/><polyline points="143.1 167.58211 143.1 252.45 228.15 167.4" style="fill:none; stroke:#7a3292; stroke-linecap:round; stroke-linejoin:round; stroke-width:15px;"/><polyline points="288.9 396.9 143.1 396.9 288.9 251.1" style="fill:none; stroke:#7a3292; stroke-linecap:round; stroke-linejoin:round; stroke-width:15px;"/><polyline points="288.9 372.41789 288.9 287.55 203.85 372.6" style="fill:none; stroke:#7a3292; stroke-linecap:round; stroke-linejoin:round; stroke-width:15px;"/><line x1="143.1" y1="342.9" x2="288.9" y2="197.1" style="fill:none; stroke:#7a3292; stroke-linecap:round; stroke-linejoin:round; stroke-width:7.5px;"/><g style="clip-path:url(#uuid-4f59b148-91be-43a4-b273-31f61080ec31);"><rect x="116.1" y="116.1" width="199.8" height="307.8" rx="16.2" ry="16.2" style="fill:none; stroke:#7a3292; stroke-linecap:round; stroke-linejoin:round; stroke-width:15px;"/></g></g></svg>